<?xml version="1.0" encoding="UTF-8" standalone="no"?><!-- Generator: Gravit.io --><svg xmlns="http://www.w3.org/2000/svg" xmlns:xlink="http://www.w3.org/1999/xlink" style="isolation:isolate" viewBox="0 0 36 32.5" width="36pt" height="32.5pt"><defs><clipPath id="_clipPath_lbfTSLRJGy2JhZ38UvpBvqHCBcIYG8xo"><rect width="36" height="32.5"/></clipPath></defs><g clip-path="url(#_clipPath_lbfTSLRJGy2JhZ38UvpBvqHCBcIYG8xo)"><g><path d=" M 1.63 22.16 C 1.309 22.164 0.994 22.077 0.72 21.91 C 0.456 21.757 0.247 21.527 0.12 21.25 C -0.003 20.984 -0.035 20.685 0.03 20.4 C 0.096 20.108 0.249 19.843 0.47 19.64 L 3.47 16.94 C 4.246 16.244 5.145 15.698 6.12 15.33 C 7.121 14.957 8.182 14.771 9.25 14.78 L 26.74 14.78 C 28.016 14.783 29.25 14.321 30.21 13.48 L 33.21 10.78 C 33.364 10.64 33.544 10.531 33.74 10.46 C 34.145 10.3 34.595 10.3 35 10.46 C 35.196 10.531 35.376 10.64 35.53 10.78 C 35.999 11.175 36.142 11.836 35.88 12.39 C 35.797 12.572 35.678 12.735 35.53 12.87 L 32.53 15.57 C 31.759 16.271 30.859 16.814 29.88 17.17 C 28.878 17.541 27.818 17.731 26.75 17.73 L 9.25 17.73 C 7.973 17.723 6.738 18.185 5.78 19.03 L 2.78 21.73 C 2.627 21.872 2.447 21.981 2.25 22.05 C 2.052 22.126 1.842 22.163 1.63 22.16 Z " fill="rgb(255,163,0)"/><path d=" M 19.63 17.73 L 14.72 17.73 C 14.294 17.735 13.88 17.581 13.56 17.3 C 13.262 17.034 13.092 16.654 13.092 16.255 C 13.092 15.856 13.262 15.476 13.56 15.21 C 13.88 14.929 14.294 14.775 14.72 14.78 L 19.63 14.78 C 20.056 14.775 20.47 14.929 20.79 15.21 C 21.094 15.472 21.269 15.854 21.269 16.255 C 21.269 16.656 21.094 17.038 20.79 17.3 C 20.47 17.581 20.056 17.735 19.63 17.73 Z " fill="rgb(249,139,0)"/><path d=" M 9.81 29.55 C 9.387 29.554 8.977 29.401 8.66 29.12 L 3.75 24.68 C 3.597 24.551 3.475 24.391 3.39 24.21 C 3.23 23.847 3.23 23.433 3.39 23.07 C 3.474 22.889 3.597 22.728 3.75 22.6 C 3.903 22.458 4.083 22.349 4.28 22.28 C 4.681 22.12 5.129 22.12 5.53 22.28 C 5.727 22.349 5.907 22.458 6.06 22.6 L 10.97 27.03 C 11.193 27.228 11.35 27.49 11.42 27.78 C 11.483 28.07 11.448 28.372 11.32 28.64 C 11.193 28.917 10.984 29.147 10.72 29.3 C 10.445 29.464 10.13 29.55 9.81 29.55 Z " fill="rgb(207,39,141)"/><path d=" M 14.72 28.07 C 14.508 28.074 14.297 28.037 14.1 27.96 C 13.903 27.891 13.723 27.782 13.57 27.64 L 5.38 20.25 C 4.911 19.855 4.768 19.194 5.03 18.64 C 5.113 18.458 5.232 18.295 5.38 18.16 C 5.541 18.029 5.719 17.921 5.91 17.84 C 6.112 17.769 6.325 17.732 6.54 17.73 C 6.755 17.731 6.968 17.768 7.17 17.84 C 7.363 17.916 7.542 18.025 7.7 18.16 L 15.88 25.55 C 16.103 25.752 16.26 26.017 16.33 26.31 C 16.392 26.597 16.357 26.896 16.23 27.16 C 16.103 27.437 15.894 27.667 15.63 27.82 C 15.357 27.989 15.041 28.075 14.72 28.07 Z " fill="rgb(207,39,141)"/><path d=" M 16.36 23.64 C 16.145 23.639 15.932 23.602 15.73 23.53 C 15.537 23.454 15.358 23.345 15.2 23.21 L 10.29 18.81 C 9.986 18.55 9.812 18.17 9.812 17.77 C 9.812 17.37 9.986 16.99 10.29 16.73 C 10.609 16.446 11.022 16.289 11.45 16.29 C 11.875 16.291 12.287 16.443 12.61 16.72 L 17.52 21.16 C 17.74 21.359 17.894 21.621 17.96 21.91 C 18.026 22.199 17.994 22.501 17.87 22.77 C 17.743 23.047 17.534 23.277 17.27 23.43 C 16.99 23.579 16.677 23.651 16.36 23.64 Z " fill="rgb(207,39,141)"/><path d=" M 9.81 29.55 C 9.387 29.554 8.977 29.401 8.66 29.12 L 6.98 27.64 C 6.676 27.378 6.501 26.996 6.501 26.595 C 6.501 26.194 6.676 25.812 6.98 25.55 C 7.3 25.268 7.713 25.115 8.14 25.12 C 8.564 25.114 8.974 25.268 9.29 25.55 L 10.93 27.03 C 11.153 27.228 11.31 27.49 11.38 27.78 C 11.443 28.07 11.408 28.372 11.28 28.64 C 11.153 28.917 10.944 29.147 10.68 29.3 C 10.416 29.457 10.117 29.543 9.81 29.55 L 9.81 29.55 Z " fill="rgb(53,72,148)"/><path d=" M 14.72 28.07 C 14.508 28.073 14.298 28.036 14.1 27.96 C 13.903 27.891 13.723 27.782 13.57 27.64 L 11.98 26.16 C 11.83 26.027 11.71 25.864 11.63 25.68 C 11.456 25.323 11.456 24.907 11.63 24.55 C 11.713 24.368 11.832 24.205 11.98 24.07 C 12.302 23.792 12.714 23.639 13.14 23.64 C 13.563 23.636 13.973 23.789 14.29 24.07 L 15.93 25.55 C 16.153 25.752 16.31 26.017 16.38 26.31 C 16.442 26.597 16.407 26.896 16.28 27.16 C 16.153 27.437 15.944 27.667 15.68 27.82 C 15.392 27.998 15.058 28.085 14.72 28.07 Z " fill="rgb(53,72,148)"/><path d=" M 16.36 23.64 C 16.145 23.639 15.932 23.602 15.73 23.53 C 15.533 23.461 15.353 23.352 15.2 23.21 L 13.56 21.73 C 13.262 21.464 13.092 21.084 13.092 20.685 C 13.092 20.286 13.262 19.906 13.56 19.64 C 13.883 19.363 14.295 19.211 14.72 19.21 C 15.146 19.209 15.558 19.362 15.88 19.64 L 17.51 21.12 C 17.736 21.32 17.894 21.586 17.96 21.88 C 18.025 22.165 17.993 22.464 17.87 22.73 C 17.743 23.007 17.534 23.237 17.27 23.39 C 16.994 23.553 16.68 23.639 16.36 23.64 Z " fill="rgb(53,72,148)"/><path d=" M 24.54 16.25 C 24.325 16.248 24.112 16.211 23.91 16.14 C 23.715 16.066 23.536 15.958 23.38 15.82 L 18.48 11.39 C 18.179 11.124 18.004 10.742 18 10.34 C 18.015 9.955 18.189 9.593 18.48 9.34 C 18.796 9.058 19.206 8.904 19.63 8.91 C 20.057 8.905 20.47 9.058 20.79 9.34 L 25.7 13.77 C 25.923 13.972 26.08 14.237 26.15 14.53 C 26.212 14.817 26.177 15.116 26.05 15.38 C 25.923 15.657 25.714 15.887 25.45 16.04 C 25.172 16.193 24.857 16.266 24.54 16.25 L 24.54 16.25 Z " fill="rgb(207,39,141)"/><path d=" M 29.45 14.81 C 29.234 14.811 29.02 14.77 28.82 14.69 C 28.623 14.621 28.443 14.512 28.29 14.37 L 20.11 6.99 C 19.962 6.855 19.843 6.692 19.76 6.51 C 19.586 6.153 19.586 5.737 19.76 5.38 C 19.84 5.196 19.96 5.033 20.11 4.9 C 20.263 4.758 20.443 4.649 20.64 4.58 C 20.84 4.5 21.054 4.459 21.27 4.46 C 21.483 4.459 21.693 4.5 21.89 4.58 C 22.087 4.649 22.267 4.758 22.42 4.9 L 30.61 12.28 C 30.834 12.48 30.988 12.746 31.05 13.04 C 31.121 13.325 31.089 13.626 30.96 13.89 C 30.831 14.168 30.622 14.401 30.36 14.56 C 30.084 14.723 29.77 14.809 29.45 14.81 Z " fill="rgb(207,39,141)"/><path d=" M 31.09 10.34 C 30.663 10.346 30.249 10.193 29.93 9.91 L 24.98 5.48 C 24.832 5.345 24.713 5.182 24.63 5 C 24.456 4.643 24.456 4.227 24.63 3.87 C 24.713 3.688 24.832 3.525 24.98 3.39 C 25.133 3.248 25.313 3.139 25.51 3.07 C 25.914 2.923 26.356 2.923 26.76 3.07 C 26.959 3.141 27.142 3.25 27.3 3.39 L 32.2 7.82 C 32.426 8.02 32.584 8.286 32.65 8.58 C 32.716 8.865 32.684 9.165 32.56 9.43 C 32.428 9.706 32.22 9.938 31.96 10.1 C 31.695 10.253 31.396 10.336 31.09 10.34 L 31.09 10.34 Z " fill="rgb(207,39,141)"/><path d=" M 21.27 13.3 C 21.055 13.299 20.842 13.262 20.64 13.19 C 20.444 13.114 20.265 13.002 20.11 12.86 L 18.48 11.39 C 18.179 11.124 18.004 10.742 18 10.34 C 18.015 9.955 18.189 9.593 18.48 9.34 C 18.796 9.058 19.206 8.904 19.63 8.91 C 20.057 8.905 20.47 9.058 20.79 9.34 L 22.42 10.82 C 22.646 11.016 22.804 11.278 22.87 11.57 C 22.936 11.859 22.904 12.161 22.78 12.43 C 22.653 12.707 22.444 12.937 22.18 13.09 C 21.9 13.239 21.587 13.311 21.27 13.3 L 21.27 13.3 Z " fill="rgb(53,72,148)"/><path d=" M 22.9 8.87 C 22.688 8.87 22.477 8.829 22.28 8.75 C 22.083 8.681 21.903 8.572 21.75 8.43 L 20.11 6.96 C 19.962 6.825 19.843 6.662 19.76 6.48 C 19.586 6.123 19.586 5.707 19.76 5.35 C 19.84 5.166 19.96 5.003 20.11 4.87 C 20.263 4.728 20.443 4.619 20.64 4.55 C 20.84 4.47 21.054 4.429 21.27 4.43 C 21.483 4.429 21.693 4.47 21.89 4.55 C 22.087 4.619 22.267 4.728 22.42 4.87 L 24.06 6.34 C 24.286 6.54 24.444 6.806 24.51 7.1 C 24.571 7.386 24.539 7.683 24.42 7.95 C 24.287 8.228 24.075 8.461 23.81 8.62 C 23.535 8.784 23.22 8.87 22.9 8.87 Z " fill="rgb(53,72,148)"/><path d=" M 27.81 7.39 C 27.387 7.394 26.977 7.241 26.66 6.96 L 24.98 5.48 C 24.832 5.345 24.713 5.182 24.63 5 C 24.456 4.643 24.456 4.227 24.63 3.87 C 24.713 3.688 24.832 3.525 24.98 3.39 C 25.133 3.248 25.313 3.139 25.51 3.07 C 25.914 2.923 26.356 2.923 26.76 3.07 C 26.959 3.141 27.142 3.25 27.3 3.39 L 28.93 4.87 C 29.396 5.266 29.543 5.923 29.29 6.48 C 29.156 6.755 28.944 6.985 28.68 7.14 C 28.416 7.297 28.117 7.383 27.81 7.39 L 27.81 7.39 Z " fill="rgb(53,72,148)"/><path d=" M 13.09 32.5 C 12.771 32.504 12.456 32.421 12.18 32.26 C 11.918 32.101 11.709 31.868 11.58 31.59 C 11.452 31.326 11.417 31.027 11.48 30.74 C 11.55 30.447 11.707 30.182 11.93 29.98 L 14.93 27.28 C 15.832 26.488 16.356 25.35 16.37 24.15 L 16.37 8.36 C 16.371 7.383 16.583 6.418 16.99 5.53 C 17.408 4.617 18.015 3.802 18.77 3.14 L 21.77 0.44 C 22.088 0.154 22.502 -0.003 22.93 0 C 23.355 -0.002 23.765 0.155 24.08 0.44 C 24.384 0.7 24.558 1.08 24.558 1.48 C 24.558 1.88 24.384 2.26 24.08 2.52 L 21.08 5.23 C 20.18 6.023 19.657 7.16 19.64 8.36 L 19.64 24.15 C 19.643 25.127 19.432 26.094 19.02 26.98 C 18.6 27.889 17.997 28.703 17.25 29.37 L 14.25 32.07 C 14.097 32.212 13.917 32.321 13.72 32.39 C 13.519 32.467 13.305 32.505 13.09 32.5 Z " fill="rgb(255,215,0)"/></g></g></svg>