<?xml version="1.0" encoding="UTF-8" standalone="no"?><!-- Generator: Gravit.io --><svg xmlns="http://www.w3.org/2000/svg" xmlns:xlink="http://www.w3.org/1999/xlink" style="isolation:isolate" viewBox="0 0 36 36" width="36pt" height="36pt"><defs><clipPath id="_clipPath_t7EwWyKEVYvW2SnEMZLyTwvQcXQ33mmO"><rect width="36" height="36"/></clipPath></defs><g clip-path="url(#_clipPath_t7EwWyKEVYvW2SnEMZLyTwvQcXQ33mmO)"><g><path d=" M 35.82 1.37 C 36.77 2.32 33.87 7.27 28.66 13.49 C 26.59 15.98 24.13 18.68 21.41 21.41 C 18.69 24.14 15.98 26.58 13.49 28.66 C 7.27 33.87 2.32 36.77 1.37 35.82 L 0.17 34.62 C 1.5 35.95 10.29 29.31 19.8 19.8 C 29.31 10.29 35.95 1.5 34.62 0.17 L 35.82 1.37 Z " fill="rgb(207,39,141)"/><linearGradient id="_lgradient_0" x1="0.5001560687458761" y1="-1.7763568394002505e-15" x2="0.5001560687458759" y2="1.0000330325426718" gradientTransform="matrix(35.829,0,0,35.829,0.17,0.17)" gradientUnits="userSpaceOnUse"><stop offset="0%" stop-opacity="1" style="stop-color:rgb(255,255,255)"/><stop offset="100%" stop-opacity="0.45" style="stop-color:rgb(255,255,255)"/></linearGradient><path d=" M 35.82 1.37 C 36.77 2.32 33.87 7.27 28.66 13.49 C 26.59 15.98 24.13 18.68 21.41 21.41 C 18.69 24.14 15.98 26.58 13.49 28.66 C 7.27 33.87 2.32 36.77 1.37 35.82 L 0.17 34.62 C 1.5 35.95 10.29 29.31 19.8 19.8 C 29.31 10.29 35.95 1.5 34.62 0.17 L 35.82 1.37 Z " fill="url(#_lgradient_0)"/><path d=" M 34.62 0.17 C 35.95 1.5 29.32 10.28 19.8 19.8 C 10.28 29.32 1.5 35.95 0.17 34.62 C -0.71 33.74 1.9 29.62 6.52 24.15 L 6.62 24.06 C 6.97 24.544 7.35 25.005 7.76 25.44 L 7.82 25.44 C 8.018 25.646 8.285 25.77 8.57 25.79 C 8.856 25.802 9.137 25.71 9.36 25.53 C 10.83 24.29 14.11 21.45 17.36 18.18 C 20.61 14.91 24.08 10.99 25.49 9.36 C 25.676 9.14 25.772 8.858 25.76 8.57 C 25.747 8.278 25.622 8.002 25.41 7.8 L 25.41 7.8 C 24.989 7.384 24.542 6.997 24.07 6.64 L 24.15 6.54 C 29.61 1.9 33.76 -0.71 34.62 0.17 Z " fill="rgb(223,55,157)"/><path d=" M 28.67 13.49 C 29.775 17.761 28.538 22.297 25.418 25.415 C 22.297 28.534 17.76 29.768 13.49 28.66 C 15.98 26.58 18.68 24.13 21.41 21.4 C 24.14 18.67 26.59 15.98 28.67 13.49 Z " fill="rgb(69,79,138)"/><path d=" M 9.38 25.55 C 9.157 25.73 8.876 25.822 8.59 25.81 C 8.305 25.79 8.038 25.666 7.84 25.46 L 7.78 25.46 C 7.367 25.037 6.98 24.589 6.62 24.12 C 2.881 19.159 3.367 12.202 7.759 7.809 C 12.152 3.417 19.109 2.931 24.07 6.67 C 24.542 7.027 24.989 7.414 25.41 7.83 L 25.41 7.83 C 25.622 8.032 25.747 8.308 25.76 8.6 C 25.778 8.889 25.681 9.173 25.49 9.39 C 24.08 11.01 20.72 14.85 17.36 18.21 C 14 21.57 10.85 24.31 9.38 25.55 Z " fill="rgb(95,105,173)"/><path d=" M 19.16 24.44 C 18.9 24.44 18.63 24.44 18.37 24.44 C 16.69 26.01 15.05 27.44 13.49 28.75 C 15.171 29.189 16.925 29.271 18.64 28.99 C 20.353 28.702 21.987 28.062 23.44 27.11 C 26.378 25.184 28.362 22.102 28.9 18.63 C 26.979 22.22 23.232 24.455 19.16 24.44 Z " fill="rgb(56,64,111)"/><path d=" M 8.13 13.36 C 8.127 10.173 9.506 7.142 11.91 5.05 C 6.406 7.27 3.237 13.069 4.34 18.9 C 4.69 20.773 5.471 22.54 6.62 24.06 C 6.967 24.547 7.348 25.008 7.76 25.44 L 7.76 25.44 C 7.96 25.648 8.232 25.773 8.52 25.79 C 8.806 25.802 9.087 25.71 9.31 25.53 C 10.08 24.88 11.31 23.79 12.85 22.43 C 9.849 20.378 8.057 16.975 8.06 13.34 L 8.13 13.36 Z " fill="rgb(69,79,138)"/><path d=" M 8.35 25.76 C 8.155 25.71 7.978 25.606 7.84 25.46 L 7.78 25.46 C 7.365 25.036 6.977 24.585 6.62 24.11 L 6.52 24.2 C 1.9 29.65 -0.71 33.79 0.17 34.67 C 1.31 35.81 7.97 31.07 15.86 23.67 C 10.81 26.77 8.93 26.18 8.35 25.76 Z " fill="rgb(213,45,147)"/><path d=" M 21.76 7.62 C 20.936 6.658 19.864 5.942 18.66 5.55 C 17.452 5.164 16.159 5.126 14.93 5.44 C 13.513 5.801 12.259 6.629 11.37 7.79 C 8.56 11.39 22.61 11.99 22.61 9.59 C 22.57 8.853 22.269 8.155 21.76 7.62 Z " fill="rgb(129,128,222)"/></g></g></svg>