<?xml version="1.0" encoding="UTF-8" standalone="no"?><!-- Generator: Gravit.io --><svg xmlns="http://www.w3.org/2000/svg" xmlns:xlink="http://www.w3.org/1999/xlink" style="isolation:isolate" viewBox="0 0 36 31.46" width="36pt" height="31.46pt"><defs><clipPath id="_clipPath_o2LhMvHUSz3cvjJnfgLbfSSuOlvaYyie"><rect width="36" height="31.46"/></clipPath></defs><g clip-path="url(#_clipPath_o2LhMvHUSz3cvjJnfgLbfSSuOlvaYyie)"><g><path d=" M 0 18.38 C 0.025 17.87 0.43 17.46 0.94 17.43 L 34.64 17.43 L 34.64 19.38 L 0.94 19.38 C 0.68 19.381 0.431 19.273 0.253 19.084 C 0.075 18.894 -0.017 18.64 0 18.38 Z " fill="rgb(255,201,255)"/><path d=" M 31.58 24.1 L 32.76 24.1 L 33.17 24.82 L 33.64 24.1 L 34.73 24.1 L 33.85 25.38 L 34.79 26.72 L 33.64 26.72 L 33.17 25.89 L 32.61 26.72 L 31.54 26.72 L 32.44 25.38 L 31.58 24.1 Z " fill="rgb(243,177,34)"/><path d=" M 32.02 22.38 L 32.02 14.44 L 36.02 18.44 L 32.02 22.38 Z " fill-rule="evenodd" fill="rgb(234,153,255)"/><path d=" M 22.44 0.13 L 23.44 0.13 L 23.97 1.85 L 24.46 0.13 L 25.46 0.13 L 24.46 2.89 C 24.392 3.124 24.273 3.339 24.11 3.52 C 23.886 3.695 23.603 3.777 23.32 3.75 C 23.18 3.75 22.96 3.75 22.66 3.7 L 22.59 3.01 C 22.743 3.055 22.901 3.079 23.06 3.08 C 23.162 3.082 23.263 3.055 23.35 3 C 23.434 2.921 23.496 2.821 23.53 2.71 L 22.44 0.13 Z " fill="rgb(243,177,34)"/><path d=" M 18.26 1.99 L 18.26 30.51 C 18.297 30.871 18.126 31.221 17.818 31.413 C 17.51 31.605 17.12 31.605 16.812 31.413 C 16.504 31.221 16.333 30.871 16.37 30.51 L 16.37 1.99 L 18.26 1.99 Z " fill="rgb(255,201,255)"/><path d=" M 21.29 3.98 L 13.29 3.98 L 17.29 -0.02 L 21.29 3.98 Z " fill-rule="evenodd" fill="rgb(234,153,255)"/><path d=" M 0.72 9.61 C 1.51 8.01 2.4 7.61 3.36 8.11 C 4.66 8.75 5.53 11.71 6.48 14.94 C 7.57 18.64 8.77 22.73 9.93 22.73 C 10.61 22.73 11.32 21.29 12 19.34 L 14 19.34 C 13 22.25 11.75 24.62 10 24.62 C 7.43 24.62 6 19.81 4.74 15.47 C 3.91 12.66 3.15 10.07 2.6 9.8 C 2.49 9.75 2.68 10.04 2.48 10.44 L 0.79 9.61 L 0.72 9.61 Z  M 12.62 17.45 C 12.88 16.63 13.13 15.78 13.38 14.94 C 13.849 13.115 14.467 11.333 15.23 9.61 L 15.23 9.61 C 15.83 8.39 16.49 7.88 17.23 7.91 C 17.97 7.94 18.59 8.39 19.23 9.61 L 19.23 9.61 C 19.993 11.333 20.611 13.115 21.08 14.94 C 21.33 15.78 21.58 16.63 21.84 17.45 L 19.84 17.45 C 19.63 16.79 19.44 16.13 19.24 15.45 C 18.79 13.748 18.229 12.078 17.56 10.45 L 17.56 10.45 C 17.52 10.371 17.49 10.287 17.47 10.2 C 17.419 10.104 17.359 10.014 17.29 9.93 C 17.221 10.016 17.157 10.106 17.1 10.2 C 17.089 10.288 17.062 10.372 17.02 10.45 L 17.02 10.45 C 16.347 12.077 15.782 13.748 15.33 15.45 C 15.14 16.11 14.95 16.77 14.74 17.45 L 12.62 17.45 Z  M 22.36 19.38 C 23.04 21.38 23.75 22.77 24.43 22.77 C 25.59 22.77 26.79 18.68 27.88 14.98 C 28.88 11.75 29.7 8.79 31 8.15 C 32 7.67 32.85 8.05 33.64 9.65 L 31.95 10.48 C 31.75 10.08 31.95 9.79 31.83 9.84 C 31.28 10.11 30.52 12.7 29.69 15.51 C 28.41 19.85 27 24.66 24.43 24.66 C 22.63 24.66 21.43 22.29 20.43 19.38 L 22.36 19.38 Z " fill="rgb(234,153,255)"/></g></g></svg>