<?xml version="1.0" encoding="UTF-8" standalone="no"?><!-- Generator: Gravit.io --><svg xmlns="http://www.w3.org/2000/svg" xmlns:xlink="http://www.w3.org/1999/xlink" style="isolation:isolate" viewBox="0 0 36 34.62" width="36pt" height="34.62pt"><defs><clipPath id="_clipPath_GliB6lOGTrmUmmHnWlputtm0odd6vyFE"><rect width="36" height="34.62"/></clipPath></defs><g clip-path="url(#_clipPath_GliB6lOGTrmUmmHnWlputtm0odd6vyFE)"><g><path d=" M 34 0 C 34.163 -0.002 34.322 0.043 34.46 0.13 C 34.588 0.219 34.691 0.34 34.76 0.48 C 34.892 0.775 34.819 1.122 34.58 1.34 L 34.24 1.67 L 34.24 16.74 C 34.243 17.338 33.997 17.911 33.56 18.32 C 33.118 18.742 32.531 18.979 31.92 18.98 L 21.49 18.98 C 20.876 18.98 20.285 18.744 19.84 18.32 C 19.407 17.908 19.162 17.337 19.16 16.74 L 19.16 2.47 C 19.166 2.234 19.088 2.004 18.94 1.82 C 18.796 1.629 18.597 1.486 18.37 1.41 L 17.37 1.11 L 19.11 0 L 34 0 Z " fill="rgb(237,244,250)"/><path d=" M 13.86 34.61 L 2.4 34.61 C 1.768 34.617 1.157 34.377 0.7 33.94 C 0.48 33.725 0.304 33.471 0.18 33.19 C 0.062 32.908 0.001 32.606 0 32.3 C 0.001 31.983 0.069 31.669 0.2 31.38 L 5.81 18.98 L 5.81 15.63 L 5.23 15.63 C 4.924 15.631 4.63 15.513 4.41 15.3 C 4.192 15.095 4.069 14.809 4.07 14.51 C 4.071 14.211 4.194 13.926 4.41 13.72 C 4.631 13.51 4.925 13.395 5.23 13.4 L 11 13.4 C 11.305 13.395 11.599 13.51 11.82 13.72 C 12.036 13.926 12.159 14.211 12.16 14.51 C 12.161 14.809 12.038 15.095 11.82 15.3 C 11.6 15.513 11.306 15.631 11 15.63 L 10.42 15.63 L 10.42 18.98 L 16.03 31.38 C 16.283 31.953 16.283 32.607 16.03 33.18 C 15.911 33.464 15.734 33.719 15.51 33.93 C 15.282 34.15 15.014 34.323 14.72 34.44 C 14.445 34.545 14.154 34.603 13.86 34.61 L 13.86 34.61 Z  M 12.96 32.94 C 13.217 32.939 13.465 32.839 13.65 32.66 C 13.828 32.481 13.931 32.242 13.94 31.99 C 13.937 31.877 13.913 31.765 13.87 31.66 L 12.19 27.35 L 4.07 27.35 L 2.39 31.66 C 2.347 31.765 2.323 31.877 2.32 31.99 C 2.329 32.242 2.432 32.481 2.61 32.66 C 2.795 32.839 3.043 32.939 3.3 32.94 L 12.96 32.94 Z " fill="rgb(241,249,255)"/><path d=" M 13.87 31.66 C 13.91 31.765 13.93 31.877 13.93 31.99 C 13.924 32.241 13.824 32.48 13.65 32.66 C 13.462 32.841 13.211 32.942 12.95 32.94 L 3.3 32.94 C 3.043 32.939 2.795 32.839 2.61 32.66 C 2.432 32.481 2.329 32.242 2.32 31.99 C 2.318 31.876 2.342 31.763 2.39 31.66 L 4.06 27.35 L 12.19 27.35 L 13.87 31.66 Z " fill="rgb(0,217,205)"/><path d=" M 35.13 34.61 C 35.361 34.61 35.582 34.518 35.745 34.355 C 35.908 34.192 36 33.971 36 33.74 L 36 19.98 C 36 19.428 35.552 18.98 35 18.98 L 17.26 18.98 C 16.708 18.98 16.26 19.428 16.26 19.98 L 16.26 33.74 C 16.26 34.22 16.65 34.61 17.13 34.61 C 17.61 34.61 18 34.22 18 33.74 L 18 21.65 C 18 21.098 18.448 20.65 19 20.65 L 33.26 20.65 C 33.812 20.65 34.26 21.098 34.26 21.65 L 34.26 33.74 C 34.26 34.22 34.65 34.61 35.13 34.61 Z " fill="rgb(92,105,121)"/><path d=" M 34.26 34.61 L 34.26 20.61 L 18 20.61 L 18 34.61 L 16.26 34.61 L 16.26 33.49 L 16.84 33.49 C 16.993 33.494 17.14 33.436 17.25 33.33 C 17.358 33.229 17.419 33.088 17.42 32.94 L 17.42 20.09 L 34.84 20.09 L 34.84 32.94 C 34.841 33.088 34.902 33.229 35.01 33.33 C 35.12 33.436 35.267 33.494 35.42 33.49 L 36 33.49 L 36 34.61 L 34.26 34.61 Z " fill="rgb(57,61,72)"/><path d=" M 30.77 30.14 L 22.65 30.14 C 22.346 30.132 22.051 30.246 21.832 30.456 C 21.612 30.666 21.485 30.956 21.48 31.26 L 21.48 33.49 C 21.485 33.794 21.612 34.084 21.832 34.294 C 22.051 34.504 22.346 34.618 22.65 34.61 L 30.77 34.61 C 31.073 34.618 31.367 34.504 31.585 34.293 C 31.803 34.083 31.927 33.793 31.93 33.49 L 31.93 31.26 C 31.927 30.957 31.803 30.667 31.585 30.457 C 31.367 30.246 31.073 30.132 30.77 30.14 L 30.77 30.14 Z " fill="rgb(236,246,255)"/><path d=" M 29 27.91 L 24.36 27.91 C 24.209 27.907 24.063 27.965 23.954 28.07 C 23.845 28.175 23.783 28.319 23.78 28.47 L 23.78 29.58 C 23.783 29.731 23.845 29.875 23.954 29.98 C 24.063 30.085 24.209 30.143 24.36 30.14 L 29 30.14 C 29.151 30.143 29.297 30.085 29.406 29.98 C 29.515 29.875 29.577 29.731 29.58 29.58 L 29.58 28.47 C 29.577 28.319 29.515 28.175 29.406 28.07 C 29.297 27.965 29.151 27.907 29 27.91 L 29 27.91 Z " fill="rgb(193,207,232)"/><path d=" M 29 25.68 C 28.999 26.278 28.754 26.849 28.32 27.26 C 27.399 28.129 25.961 28.129 25.04 27.26 C 24.606 26.849 24.361 26.278 24.36 25.68 C 24.36 24.44 26.1 22.33 26.68 22.33 C 27.26 22.33 29 24.44 29 25.68 Z " fill="rgb(255,198,123)"/><path d=" M 25.55 24.56 C 25.673 23.754 26.019 22.999 26.55 22.38 C 25.442 23.165 24.679 24.347 24.42 25.68 C 24.421 26.192 24.602 26.687 24.93 27.08 C 25.271 27.48 25.735 27.754 26.25 27.86 C 26.77 27.968 27.312 27.901 27.79 27.67 C 28.259 27.445 28.634 27.063 28.85 26.59 C 28.5 26.75 28.114 26.819 27.73 26.79 C 27.344 26.762 26.97 26.642 26.64 26.44 C 26.313 26.244 26.044 25.964 25.86 25.63 C 25.664 25.307 25.557 24.938 25.55 24.56 Z " fill="rgb(238,148,96)"/><path d=" M 29 29.58 L 26.1 29.58 C 25.795 29.584 25.501 29.469 25.28 29.26 C 25.064 29.054 24.941 28.769 24.94 28.47 L 24.94 27.91 L 24.36 27.91 C 24.208 27.909 24.061 27.967 23.95 28.07 C 23.842 28.175 23.781 28.319 23.78 28.47 L 23.78 29.58 C 23.781 29.731 23.842 29.875 23.95 29.98 C 24.061 30.083 24.208 30.141 24.36 30.14 L 29 30.14 C 29.152 30.143 29.3 30.085 29.41 29.98 C 29.518 29.875 29.579 29.731 29.58 29.58 L 29.58 29.03 C 29.577 29.18 29.514 29.323 29.405 29.427 C 29.296 29.53 29.15 29.585 29 29.58 L 29 29.58 Z " fill="rgb(168,183,212)"/><path d=" M 30.77 32.94 L 24.68 32.94 C 24.307 32.933 23.95 32.787 23.68 32.53 C 23.406 32.269 23.251 31.908 23.251 31.53 C 23.251 31.152 23.406 30.791 23.68 30.53 C 23.95 30.273 24.307 30.127 24.68 30.12 L 22.68 30.12 C 22.371 30.12 22.074 30.238 21.85 30.45 C 21.636 30.658 21.514 30.942 21.51 31.24 L 21.51 33.47 C 21.514 33.768 21.636 34.052 21.85 34.26 C 22.074 34.472 22.371 34.59 22.68 34.59 L 30.8 34.59 C 31.109 34.59 31.406 34.472 31.63 34.26 C 31.841 34.051 31.96 33.767 31.96 33.47 L 31.96 31.86 C 31.96 32.157 31.841 32.441 31.63 32.65 C 31.392 32.855 31.083 32.959 30.77 32.94 L 30.77 32.94 Z " fill="rgb(193,207,232)"/><path d=" M 34.84 0.78 C 34.839 0.677 34.819 0.575 34.78 0.48 C 34.739 0.385 34.677 0.299 34.6 0.23 C 34.525 0.157 34.437 0.1 34.34 0.06 C 34.238 0.02 34.129 0 34.02 0 L 19.16 0 L 17.42 1.11 L 18.42 1.41 C 18.574 1.471 18.716 1.559 18.84 1.67 L 34.31 1.67 L 34.65 1.34 C 34.786 1.187 34.855 0.985 34.84 0.78 L 34.84 0.78 Z " fill="rgb(193,207,232)"/><path d=" M 31.93 16.74 L 29 16.74 C 27.162 16.739 25.397 16.022 24.08 14.74 C 22.797 13.498 22.075 11.786 22.08 10 L 22.08 1.63 L 18.81 1.63 C 18.922 1.731 19.014 1.854 19.08 1.99 C 19.146 2.127 19.181 2.278 19.18 2.43 L 19.18 16.7 C 19.183 17.297 19.428 17.867 19.86 18.28 C 20.302 18.702 20.889 18.939 21.5 18.94 L 31.95 18.94 C 32.564 18.94 33.155 18.704 33.6 18.28 C 34.032 17.867 34.277 17.297 34.28 16.7 L 34.28 14.47 C 34.275 15.067 34.03 15.636 33.6 16.05 C 33.156 16.491 32.556 16.738 31.93 16.74 L 31.93 16.74 Z " fill="rgb(227,239,250)"/><path d=" M 32.52 9.49 L 32.52 16.19 C 32.516 16.485 32.393 16.766 32.18 16.97 C 31.959 17.18 31.665 17.298 31.36 17.3 L 22.07 17.3 C 21.761 17.3 21.464 17.182 21.24 16.97 C 21.027 16.766 20.904 16.485 20.9 16.19 L 20.9 9.49 L 32.52 9.49 Z " fill="rgb(0,217,205)"/><path d=" M 20.9 16.19 C 20.904 16.485 21.027 16.766 21.24 16.97 C 21.464 17.182 21.761 17.3 22.07 17.3 L 31.36 17.3 C 31.776 17.292 32.157 17.064 32.36 16.7 C 32.21 16.715 32.06 16.715 31.91 16.7 L 29 16.7 C 27.162 16.699 25.397 15.982 24.08 14.7 C 22.795 13.459 22.072 11.747 22.08 9.96 L 22.08 9.41 L 20.9 9.41 L 20.9 16.19 Z " fill="rgb(84,104,255)"/><path d=" M 30.78 4.19 L 30.78 3.63 L 28.45 3.63 C 28.376 3.631 28.304 3.659 28.25 3.71 C 28.191 3.759 28.158 3.833 28.16 3.91 L 28.16 15.07 C 28.158 15.147 28.191 15.221 28.25 15.27 C 28.304 15.321 28.376 15.349 28.45 15.35 L 30.78 15.35 L 30.78 14.79 L 28.78 14.79 L 28.78 12.56 L 30.24 12.56 L 30.24 12 L 28.78 12 L 28.78 9.77 L 30.78 9.77 L 30.78 9.21 L 28.78 9.21 L 28.78 6.98 L 30.24 6.98 L 30.24 6.42 L 28.78 6.42 L 28.78 4.19 L 30.78 4.19 Z " fill="rgb(92,105,121)"/><path d=" M 5.23 15.63 L 11 15.63 C 11.306 15.631 11.6 15.513 11.82 15.3 C 12.038 15.095 12.161 14.809 12.16 14.51 L 4.07 14.51 C 4.069 14.809 4.192 15.095 4.41 15.3 C 4.63 15.513 4.924 15.631 5.23 15.63 L 5.23 15.63 Z " fill="rgb(193,207,232)"/><path d=" M 11 13.4 L 5.2 13.4 C 4.895 13.395 4.601 13.51 4.38 13.72 C 4.164 13.926 4.041 14.211 4.04 14.51 L 12.16 14.51 C 12.159 14.211 12.036 13.926 11.82 13.72 C 11.599 13.51 11.305 13.395 11 13.4 L 11 13.4 Z " fill="rgb(237,244,250)"/><path d=" M 4.06 31.46 C 4.06 31.328 4.08 31.196 4.12 31.07 L 5.12 27.35 L 4.06 27.35 L 2.39 31.66 C 2.342 31.763 2.318 31.876 2.32 31.99 C 2.329 32.242 2.432 32.481 2.61 32.66 C 2.795 32.839 3.043 32.939 3.3 32.94 L 5.6 32.94 C 5.397 32.954 5.193 32.927 5 32.86 C 4.815 32.786 4.645 32.677 4.5 32.54 C 4.359 32.404 4.247 32.24 4.17 32.06 C 4.089 31.871 4.051 31.666 4.06 31.46 L 4.06 31.46 Z " fill="rgb(84,104,255)"/><path d=" M 15.91 31.04 C 15.649 31.553 15.264 31.993 14.79 32.32 C 14.305 32.651 13.744 32.854 13.16 32.91 L 12.96 32.91 L 3.3 32.91 C 3.044 32.903 2.799 32.804 2.61 32.63 C 2.432 32.451 2.329 32.212 2.32 31.96 C 2.323 31.847 2.347 31.735 2.39 31.63 L 4.07 27.32 L 5.17 27.32 L 7.55 18.95 L 7.55 18.39 C 7.549 18.091 7.672 17.805 7.89 17.6 C 8.11 17.388 8.404 17.27 8.71 17.27 L 10.45 17.27 L 10.45 15.6 L 5.81 15.6 L 5.81 18.95 L 0.2 31.35 C -0.053 31.923 -0.053 32.577 0.2 33.15 C 0.319 33.434 0.496 33.689 0.72 33.9 C 0.946 34.117 1.21 34.29 1.5 34.41 C 1.794 34.52 2.106 34.578 2.42 34.58 L 13.88 34.58 C 14.191 34.579 14.499 34.521 14.79 34.41 C 15.084 34.293 15.352 34.12 15.58 33.9 C 15.802 33.687 15.979 33.432 16.1 33.15 C 16.353 32.577 16.353 31.923 16.1 31.35 L 15.91 31.04 Z " fill="rgb(193,207,232)"/></g></g></svg>