<?xml version="1.0" encoding="UTF-8" standalone="no"?><!-- Generator: Gravit.io --><svg xmlns="http://www.w3.org/2000/svg" xmlns:xlink="http://www.w3.org/1999/xlink" style="isolation:isolate" viewBox="0 0 24 20.7" width="24pt" height="20.7pt"><defs><clipPath id="_clipPath_dC1MlNFf7HiQKUNulgoFiAoOBMyqnIDk"><rect width="24" height="20.7"/></clipPath></defs><g clip-path="url(#_clipPath_dC1MlNFf7HiQKUNulgoFiAoOBMyqnIDk)"><g><path d=" M 5.66 15.26 C 6.267 15.871 6.75 16.594 7.08 17.39 C 7.411 18.185 7.581 19.038 7.58 19.9 L 6.32 19.9 C 6.316 19.213 6.177 18.533 5.91 17.9 C 5.643 17.257 5.253 16.672 4.76 16.18 L 5.66 15.29 L 5.66 15.26 Z " fill="rgb(243,111,39)"/><path d=" M 17.76 3.91 L 2.23 19.44 L 24 19.44 L 24 20.7 L 0.71 20.7 C -0.1 20.7 -0.18 20.08 0.26 19.62 L 16.91 3.02 L 17.8 3.91 L 17.76 3.91 Z " fill="rgb(243,111,39)"/><path d=" M 9.5 17.7 L 7.91 17.7 L 7.91 16.98 L 9.5 15.08 L 10.27 15.08 L 10.27 17.02 L 10.66 17.02 L 10.66 17.7 L 10.27 17.7 L 10.27 18.29 L 9.5 18.29 L 9.5 17.7 Z  M 9.5 17.02 L 9.5 16.02 L 8.66 17.02 L 9.5 17.02 Z  M 11.29 15.13 L 13.38 15.13 L 13.38 15.83 L 11.97 15.83 L 11.89 16.3 C 11.983 16.258 12.08 16.224 12.18 16.2 L 12.46 16.2 C 12.745 16.179 13.025 16.281 13.23 16.48 C 13.423 16.669 13.532 16.929 13.53 17.2 C 13.53 17.406 13.479 17.609 13.38 17.79 C 13.279 17.973 13.126 18.123 12.94 18.22 C 12.72 18.329 12.475 18.38 12.23 18.37 C 12.051 18.374 11.873 18.354 11.7 18.31 C 11.564 18.276 11.436 18.218 11.32 18.14 C 11.219 18.066 11.131 17.974 11.06 17.87 C 10.989 17.755 10.935 17.63 10.9 17.5 L 11.79 17.4 C 11.802 17.524 11.855 17.64 11.94 17.73 C 12.016 17.801 12.116 17.84 12.22 17.84 C 12.336 17.84 12.446 17.789 12.52 17.7 C 12.61 17.579 12.652 17.43 12.64 17.28 C 12.651 17.133 12.608 16.988 12.52 16.87 C 12.439 16.779 12.321 16.731 12.2 16.74 C 12.116 16.741 12.034 16.761 11.96 16.8 C 11.883 16.844 11.816 16.902 11.76 16.97 L 11.02 16.86 L 11.29 15.16 L 11.29 15.13 Z " fill="rgb(53,72,148)"/><path d=" M 14.25 13.8 C 14.418 13.8 14.579 13.864 14.7 13.98 C 14.823 14.101 14.891 14.267 14.89 14.44 C 14.893 14.61 14.824 14.774 14.7 14.89 C 14.582 15.012 14.42 15.081 14.25 15.08 C 14.077 15.081 13.911 15.013 13.79 14.89 C 13.666 14.774 13.597 14.61 13.6 14.44 C 13.599 14.267 13.667 14.101 13.79 13.98 C 13.915 13.864 14.08 13.8 14.25 13.8 Z  M 14.49 14.19 C 14.426 14.127 14.34 14.091 14.25 14.09 C 14.157 14.09 14.067 14.126 14 14.19 C 13.865 14.329 13.865 14.551 14 14.69 C 14.067 14.754 14.157 14.79 14.25 14.79 C 14.34 14.789 14.426 14.753 14.49 14.69 C 14.56 14.626 14.6 14.535 14.6 14.44 C 14.6 14.345 14.56 14.254 14.49 14.19 Z " fill="rgb(53,72,148)"/><path d=" M 15.03 3.7 L 12.59 1.26 L 3.76 10.1 L 6.19 12.54 L 15.03 3.7 Z " fill="rgb(0,137,123)"/><path d=" M 1.91 14.35 L 3.72 10.1 L 6.15 12.53 L 1.91 14.35 Z " fill-rule="evenodd" fill="rgb(219,175,131)"/><path d=" M 15.02 3.7 L 12.59 1.27 L 13.86 0 L 16.29 2.44 L 15.02 3.7 Z " fill="rgb(245,124,0)"/><path d=" M 14.26 2.91 L 13.36 2 L 4.52 10.91 L 5.42 11.81 L 14.26 2.91 Z " fill="rgb(38,166,154)"/><path d=" M 15.02 3.7 L 12.59 1.27 L 12.91 0.91 L 15.34 3.34 L 15.02 3.7 Z " fill="rgb(224,224,224)"/><path d=" M 1.91 14.34 L 4.53 10.91 L 5.43 11.81 L 1.91 14.34 Z " fill-rule="evenodd" fill="rgb(230,193,156)"/><path d=" M 1.91 14.34 L 2.44 13.1 L 3.15 13.82 L 1.91 14.34 Z " fill-rule="evenodd" fill="rgb(66,66,66)"/></g></g></svg>